<svg version="1.1" id="Layer_1" xmlns="http://www.w3.org/2000/svg" xmlns:xlink="http://www.w3.org/1999/xlink" x="0px" y="0px"
	 width="100%" viewBox="0 0 267 188" enable-background="new 0 0 267 188" xml:space="preserve">
<path fill="#FEFEFE" opacity="1.000000" stroke="none" 
	d="
M165.000000,189.000000 
	C110.000000,189.000000 55.500000,189.000000 1.000000,189.000000 
	C1.000000,126.333336 1.000000,63.666668 1.000000,1.000000 
	C90.000000,1.000000 179.000000,1.000000 268.000000,1.000000 
	C268.000000,63.666668 268.000000,126.333336 268.000000,189.000000 
	C233.833328,189.000000 199.666672,189.000000 165.000000,189.000000 
M126.871635,114.661392 
	C126.336250,113.665382 125.868515,111.859314 125.254219,111.808006 
	C121.877678,111.525986 118.465286,111.673363 114.836334,111.673363 
	C114.836334,115.096489 114.687729,117.897697 114.876144,120.676056 
	C115.084442,123.747620 115.601395,126.798256 116.893311,130.018539 
	C120.473213,130.018539 124.053123,130.018539 127.633026,130.018539 
	C127.630997,129.428116 127.628967,128.837677 127.626938,128.247253 
	C124.866241,128.247253 122.105545,128.247253 119.165993,128.247253 
	C119.165993,125.765076 119.165993,124.073372 119.165993,122.129837 
	C120.809433,122.129837 122.164787,122.352638 123.401756,122.065483 
	C124.575211,121.793091 125.624687,120.986641 126.728691,120.415054 
	C125.544159,119.931114 124.396767,119.255699 123.164719,119.016716 
	C121.915474,118.774399 120.582596,118.963234 119.286346,118.963234 
	C118.991173,118.527000 118.695999,118.090775 118.400826,117.654541 
	C119.449570,116.776962 120.372673,115.542885 121.580658,115.117149 
	C122.919449,114.645317 124.518570,114.912163 126.871635,114.661392 
M138.984756,127.065033 
	C141.217743,127.080231 143.450729,127.095428 145.980759,127.802261 
	C147.320694,128.309341 148.660614,128.816422 151.004776,129.703537 
	C148.743317,123.444168 147.007507,118.324753 144.976685,113.325172 
	C144.633453,112.480141 143.020508,111.710472 141.992279,111.708008 
	C140.966034,111.705544 139.344101,112.472054 139.006378,113.312538 
	C136.877838,118.609688 135.034241,124.021324 133.096497,129.395142 
	C133.489822,129.738129 133.883133,130.081116 134.276459,130.424103 
	C135.565643,129.301941 136.854843,128.179764 138.984756,127.065033 
M125.828773,99.678177 
	C125.828773,84.938477 125.828773,70.198776 125.828773,55.515152 
	C113.427315,54.384121 113.427315,54.384121 109.131668,62.237534 
	C112.071762,62.865128 114.891632,63.467056 117.555618,64.986702 
	C117.555618,76.612015 117.555618,88.237320 117.555618,99.965118 
	C120.439178,99.965118 122.717392,99.965118 125.828773,99.678177 
M140.778015,80.292282 
	C143.306412,81.649345 145.495819,82.479301 148.449219,80.417542 
	C152.646484,77.487457 157.548981,80.410950 158.012558,85.602257 
	C158.497437,91.032143 154.827148,93.090019 150.743393,94.837875 
	C143.142197,88.832954 142.490173,88.623573 136.515427,90.233360 
	C137.335968,96.920036 143.347198,101.755791 150.855606,101.769348 
	C158.692703,101.783501 165.806335,95.892265 166.072617,88.232277 
	C166.203506,84.466652 165.717224,79.518471 163.414566,77.104279 
	C160.046890,73.573479 154.794922,71.839905 149.836853,69.054253 
	C150.099747,67.977676 150.677643,65.611214 151.345230,62.877430 
	C156.388153,62.877430 161.131866,62.877430 165.680359,62.877430 
	C165.680359,60.139256 165.680359,57.872597 165.680359,55.192207 
	C159.294067,55.192207 153.165009,55.125652 147.040710,55.266041 
	C146.151657,55.286423 144.647369,56.169163 144.506302,56.869972 
	C142.947800,64.611473 141.602676,72.395912 140.104645,80.275749 
	C140.104645,80.275749 139.981171,80.060814 139.981171,80.060814 
	C139.981171,80.060814 140.069519,80.249443 140.778015,80.292282 
M166.733078,29.801521 
	C166.115051,29.556135 165.469193,29.364002 164.883072,29.057583 
	C149.667267,21.102734 134.867447,22.523029 119.332573,29.178919 
	C105.374237,35.159348 90.549637,39.117886 77.022964,43.660740 
	C77.022964,59.956074 76.686958,75.600266 77.144997,91.221176 
	C77.434387,101.090561 78.152802,101.256828 86.973427,100.683105 
	C87.234344,100.666130 87.474541,100.330482 87.724403,100.143417 
	C87.296547,100.148819 86.868690,100.154228 86.440842,100.159630 
	C86.014633,84.742920 85.691315,69.322121 85.078064,53.912861 
	C84.950752,50.713837 86.666405,50.007896 88.976753,49.236046 
	C105.820808,43.608727 122.629524,37.873573 139.520340,32.391010 
	C141.522552,31.741110 144.125793,31.886782 146.158478,32.553627 
	C162.710266,37.983631 179.146469,43.769085 195.731781,49.091351 
	C199.390076,50.265316 200.164169,52.075603 200.041000,55.497864 
	C199.500732,70.509117 199.158768,85.527496 198.743240,100.603035 
	C207.052307,101.265816 207.516251,101.288055 207.951157,92.214714 
	C208.675919,77.094864 208.823761,61.943932 208.932434,46.804058 
	C208.941833,45.495007 207.102936,43.460861 205.698288,42.964680 
	C193.020905,38.486473 180.248764,34.276527 166.733078,29.801521 
M59.922169,63.512707 
	C60.225525,73.659973 59.950272,83.863953 60.938335,93.944107 
	C64.189507,127.112373 81.220139,150.768692 110.950691,165.809250 
	C118.296104,169.525269 123.618507,166.085083 131.057358,163.862061 
	C116.985008,159.007309 105.031837,153.318054 94.937782,144.313507 
	C76.376251,127.755455 69.576172,106.226532 69.061325,82.183273 
	C68.812401,70.558670 69.018356,58.924328 69.018356,47.221085 
	C59.922043,49.120213 59.922043,49.120213 59.922165,57.519218 
	C59.922188,59.185741 59.922161,60.852261 59.922169,63.512707 
M177.794373,144.431702 
	C178.606644,144.235825 179.418915,144.039963 180.231186,143.844101 
	C179.802795,143.355835 179.374405,142.867554 178.946014,142.379288 
	C171.105743,142.424667 163.191071,141.348999 155.940704,146.056580 
	C146.617538,152.110016 137.005447,151.203476 127.961739,145.561218 
	C120.868698,141.135971 113.384552,142.748520 105.401985,142.247238 
	C106.049316,143.251907 106.210518,143.738937 106.547508,143.990707 
	C116.944466,151.758942 128.809296,156.419022 141.097046,160.129608 
	C142.249161,160.477509 143.714828,160.285843 144.907288,159.924057 
	C156.393311,156.439346 167.425110,151.951843 177.794373,144.431702 
M171.821823,128.221161 
	C171.445160,124.474937 168.523041,121.159119 171.110794,116.846733 
	C172.671387,114.246094 170.204346,112.143600 167.317337,111.925621 
	C164.042755,111.678383 160.735153,111.868546 157.239075,111.868546 
	C157.239075,117.903130 157.239075,123.801804 157.239075,130.023453 
	C158.677628,129.871979 159.855408,129.747971 161.312164,129.594574 
	C161.312164,126.911095 161.312164,124.631012 161.312164,122.434196 
	C165.189453,121.593788 166.806671,122.897636 167.152435,126.651543 
	C167.504456,130.473938 168.899231,130.919128 171.821823,128.221161 
M178.817490,127.521194 
	C179.899902,128.261581 180.887329,129.267090 182.081696,129.695038 
	C186.534317,131.290497 192.020264,129.493530 192.790939,126.063278 
	C193.985138,120.747826 190.127823,119.703384 186.197876,118.689423 
	C184.834610,118.337685 183.643509,117.318687 182.373779,116.604462 
	C182.602173,115.974258 182.830566,115.344063 183.058975,114.713860 
	C186.116730,115.449356 189.174484,116.184845 192.488892,116.982071 
	C192.004120,111.758934 188.470322,111.225258 184.914261,111.320602 
	C181.783463,111.404549 178.805954,112.512062 178.495010,116.295174 
	C178.151337,120.476738 181.302429,121.359207 184.507446,122.231544 
	C186.085114,122.660942 187.510239,123.650833 189.497299,124.629967 
	C186.639099,127.309250 184.597183,128.013443 182.134827,125.435356 
	C181.394272,124.659973 180.041504,124.469307 178.969193,124.010780 
	C178.757034,124.966949 178.544876,125.923119 178.817490,127.521194 
M104.125053,112.859589 
	C102.929474,114.611237 101.733894,116.362885 100.533203,118.111061 
	C95.524689,111.656059 95.524689,111.656059 93.085381,112.157478 
	C95.184898,117.801750 97.314690,123.527412 99.564148,129.574768 
	C99.769363,129.462509 101.618248,129.092514 102.027061,128.118240 
	C103.963837,123.502556 105.650566,118.766327 107.135529,113.982750 
	C107.975471,111.276970 106.749489,110.956940 104.125053,112.859589 
z"/>
<path fill="#067BC9" opacity="1.000000" stroke="none" 
	d="
M167.118744,29.894712 
	C180.248764,34.276527 193.020905,38.486473 205.698288,42.964680 
	C207.102936,43.460861 208.941833,45.495007 208.932434,46.804058 
	C208.823761,61.943932 208.675919,77.094864 207.951157,92.214714 
	C207.516251,101.288055 207.052307,101.265816 198.743240,100.603035 
	C199.158768,85.527496 199.500732,70.509117 200.041000,55.497864 
	C200.164169,52.075603 199.390076,50.265316 195.731781,49.091351 
	C179.146469,43.769085 162.710266,37.983631 146.158478,32.553627 
	C144.125793,31.886782 141.522552,31.741110 139.520340,32.391010 
	C122.629524,37.873573 105.820808,43.608727 88.976753,49.236046 
	C86.666405,50.007896 84.950752,50.713837 85.078064,53.912861 
	C85.691315,69.322121 86.014633,84.742920 86.440842,100.159630 
	C86.868690,100.154228 87.296547,100.148819 87.724403,100.143417 
	C87.474541,100.330482 87.234344,100.666130 86.973427,100.683105 
	C78.152802,101.256828 77.434387,101.090561 77.144997,91.221176 
	C76.686958,75.600266 77.022964,59.956074 77.022964,43.660740 
	C90.549637,39.117886 105.374237,35.159348 119.332573,29.178919 
	C134.867447,22.523029 149.667267,21.102734 164.883072,29.057583 
	C165.469193,29.364002 166.115051,29.556135 167.118744,29.894712 
z"/>
<path fill="#047AC9" opacity="1.000000" stroke="none" 
	d="
M59.922161,63.015747 
	C59.922161,60.852261 59.922188,59.185741 59.922165,57.519218 
	C59.922043,49.120213 59.922043,49.120213 69.018356,47.221085 
	C69.018356,58.924328 68.812401,70.558670 69.061325,82.183273 
	C69.576172,106.226532 76.376251,127.755455 94.937782,144.313507 
	C105.031837,153.318054 116.985008,159.007309 131.057358,163.862061 
	C123.618507,166.085083 118.296104,169.525269 110.950691,165.809250 
	C81.220139,150.768692 64.189507,127.112373 60.938335,93.944107 
	C59.950272,83.863953 60.225525,73.659973 59.922161,63.015747 
z"/>
<path fill="#083262" opacity="1.000000" stroke="none" 
	d="
M140.199768,80.168724 
	C141.602676,72.395912 142.947800,64.611473 144.506302,56.869972 
	C144.647369,56.169163 146.151657,55.286423 147.040710,55.266041 
	C153.165009,55.125652 159.294067,55.192207 165.680359,55.192207 
	C165.680359,57.872597 165.680359,60.139256 165.680359,62.877430 
	C161.131866,62.877430 156.388153,62.877430 151.345230,62.877430 
	C150.677643,65.611214 150.099747,67.977676 149.836853,69.054253 
	C154.794922,71.839905 160.046890,73.573479 163.414566,77.104279 
	C165.717224,79.518471 166.203506,84.466652 166.072617,88.232277 
	C165.806335,95.892265 158.692703,101.783501 150.855606,101.769348 
	C143.347198,101.755791 137.335968,96.920036 136.515427,90.233360 
	C142.490173,88.623573 143.142197,88.832954 150.743393,94.837875 
	C154.827148,93.090019 158.497437,91.032143 158.012558,85.602257 
	C157.548981,80.410950 152.646484,77.487457 148.449219,80.417542 
	C145.495819,82.479301 143.306412,81.649345 140.445892,80.233841 
	C140.113770,80.175407 140.199768,80.168724 140.199768,80.168724 
z"/>
<path fill="#0B7DCA" opacity="1.000000" stroke="none" 
	d="
M177.512070,144.640747 
	C167.425110,151.951843 156.393311,156.439346 144.907288,159.924057 
	C143.714828,160.285843 142.249161,160.477509 141.097046,160.129608 
	C128.809296,156.419022 116.944466,151.758942 106.547508,143.990707 
	C106.210518,143.738937 106.049316,143.251907 105.401985,142.247238 
	C113.384552,142.748520 120.868698,141.135971 127.961739,145.561218 
	C137.005447,151.203476 146.617538,152.110016 155.940704,146.056580 
	C163.191071,141.348999 171.105743,142.424667 178.946014,142.379288 
	C179.374405,142.867554 179.802795,143.355835 180.231186,143.844101 
	C179.418915,144.039963 178.606644,144.235825 177.512070,144.640747 
z"/>
<path fill="#113B67" opacity="1.000000" stroke="none" 
	d="
M117.711494,64.068985 
	C114.891632,63.467056 112.071762,62.865128 109.131668,62.237534 
	C113.427315,54.384121 113.427315,54.384121 125.828773,55.515152 
	C125.828773,70.198776 125.828773,84.938477 125.144630,99.529297 
	C122.750092,99.052254 121.039696,98.724106 119.017113,98.336052 
	C119.017113,88.367348 119.077408,78.669418 118.958504,68.973694 
	C118.938393,67.333939 118.146698,65.703651 117.711494,64.068985 
z"/>
<path fill="#082D5F" opacity="1.000000" stroke="none" 
	d="
M171.996826,128.558502 
	C168.899231,130.919128 167.504456,130.473938 167.152435,126.651543 
	C166.806671,122.897636 165.189453,121.593788 161.312164,122.434196 
	C161.312164,124.631012 161.312164,126.911095 161.312164,129.594574 
	C159.855408,129.747971 158.677628,129.871979 157.239075,130.023453 
	C157.239075,123.801804 157.239075,117.903130 157.239075,111.868546 
	C160.735153,111.868546 164.042755,111.678383 167.317337,111.925621 
	C170.204346,112.143600 172.671387,114.246094 171.110794,116.846733 
	C168.523041,121.159119 171.445160,124.474937 171.996826,128.558502 
M167.065994,118.129761 
	C167.603928,112.401642 163.431625,116.042770 161.076111,114.634575 
	C161.173843,116.552536 161.236252,117.777481 161.309784,119.220497 
	C163.283096,119.056709 164.928848,118.920105 167.065994,118.129761 
z"/>
<path fill="#0E3262" opacity="1.000000" stroke="none" 
	d="
M178.575104,127.200241 
	C178.544876,125.923119 178.757034,124.966949 178.969193,124.010780 
	C180.041504,124.469307 181.394272,124.659973 182.134827,125.435356 
	C184.597183,128.013443 186.639099,127.309250 189.497299,124.629967 
	C187.510239,123.650833 186.085114,122.660942 184.507446,122.231544 
	C181.302429,121.359207 178.151337,120.476738 178.495010,116.295174 
	C178.805954,112.512062 181.783463,111.404549 184.914261,111.320602 
	C188.470322,111.225258 192.004120,111.758934 192.488892,116.982071 
	C189.174484,116.184845 186.116730,115.449356 183.058975,114.713860 
	C182.830566,115.344063 182.602173,115.974258 182.373779,116.604462 
	C183.643509,117.318687 184.834610,118.337685 186.197876,118.689423 
	C190.127823,119.703384 193.985138,120.747826 192.790939,126.063278 
	C192.020264,129.493530 186.534317,131.290497 182.081696,129.695038 
	C180.887329,129.267090 179.899902,128.261581 178.575104,127.200241 
z"/>
<path fill="#0E3262" opacity="1.000000" stroke="none" 
	d="
M138.144043,127.057594 
	C136.854843,128.179764 135.565643,129.301941 134.276459,130.424103 
	C133.883133,130.081116 133.489822,129.738129 133.096497,129.395142 
	C135.034241,124.021324 136.877838,118.609688 139.006378,113.312538 
	C139.344101,112.472054 140.966034,111.705544 141.992279,111.708008 
	C143.020508,111.710472 144.633453,112.480141 144.976685,113.325172 
	C147.007507,118.324753 148.743317,123.444168 151.004776,129.703537 
	C148.660614,128.816422 147.320694,128.309341 145.703125,127.143387 
	C144.754028,125.581619 143.702667,124.760483 143.487259,123.759453 
	C142.980194,121.403084 142.872055,118.960884 142.602509,116.553406 
	C142.192947,116.575066 141.783386,116.596725 141.373825,116.618378 
	C140.297226,120.098122 139.220642,123.577858 138.144043,127.057594 
z"/>
<path fill="#113464" opacity="1.000000" stroke="none" 
	d="
M104.414955,112.699280 
	C106.749489,110.956940 107.975471,111.276970 107.135529,113.982750 
	C105.650566,118.766327 103.963837,123.502556 102.027061,128.118240 
	C101.618248,129.092514 99.769363,129.462509 99.564148,129.574768 
	C97.314690,123.527412 95.184898,117.801750 93.085381,112.157478 
	C95.524689,111.656059 95.524689,111.656059 100.535751,118.112793 
	C101.733894,116.362885 102.929474,114.611237 104.414955,112.699280 
z"/>
<path fill="#0B3563" opacity="1.000000" stroke="none" 
	d="
M126.004333,114.857346 
	C124.518570,114.912163 122.919449,114.645317 121.580658,115.117149 
	C120.372673,115.542885 119.449570,116.776962 118.400826,117.654541 
	C118.695999,118.090775 118.991173,118.527000 119.286346,118.963234 
	C120.582596,118.963234 121.915474,118.774399 123.164719,119.016716 
	C124.396767,119.255699 125.544159,119.931114 126.728691,120.415054 
	C125.624687,120.986641 124.575211,121.793091 123.401756,122.065483 
	C122.164787,122.352638 120.809433,122.129837 119.165993,122.129837 
	C119.165993,124.073372 119.165993,125.765076 119.165993,128.247253 
	C122.105545,128.247253 124.866241,128.247253 127.626938,128.247253 
	C127.628967,128.837677 127.630997,129.428116 127.633026,130.018539 
	C124.053123,130.018539 120.473213,130.018539 116.447647,129.479385 
	C116.001984,123.832016 116.001984,118.723801 116.001984,112.109474 
	C119.979622,113.202217 122.991974,114.029778 126.004333,114.857346 
z"/>
<path fill="#C3C9D3" opacity="1.000000" stroke="none" 
	d="
M138.564392,127.061310 
	C139.220642,123.577858 140.297226,120.098122 141.373825,116.618378 
	C141.783386,116.596725 142.192947,116.575066 142.602509,116.553406 
	C142.872055,118.960884 142.980194,121.403084 143.487259,123.759453 
	C143.702667,124.760483 144.754028,125.581619 145.554596,126.797569 
	C143.450729,127.095428 141.217743,127.080231 138.564392,127.061310 
z"/>
<path fill="#002057" opacity="1.000000" stroke="none" 
	d="
M117.633560,64.527847 
	C118.146698,65.703651 118.938393,67.333939 118.958504,68.973694 
	C119.077408,78.669418 119.017113,88.367348 119.017113,98.336052 
	C121.039696,98.724106 122.750092,99.052254 124.728050,99.672760 
	C122.717392,99.965118 120.439178,99.965118 117.555618,99.965118 
	C117.555618,88.237320 117.555618,76.612015 117.633560,64.527847 
z"/>
<path fill="#001954" opacity="1.000000" stroke="none" 
	d="
M126.437988,114.759369 
	C122.991974,114.029778 119.979622,113.202217 116.001984,112.109474 
	C116.001984,118.723801 116.001984,123.832016 115.992958,129.399109 
	C115.601395,126.798256 115.084442,123.747620 114.876144,120.676056 
	C114.687729,117.897697 114.836334,115.096489 114.836334,111.673363 
	C118.465286,111.673363 121.877678,111.525986 125.254219,111.808006 
	C125.868515,111.859314 126.336250,113.665382 126.437988,114.759369 
z"/>
<path fill="#083262" opacity="1.000000" stroke="none" 
	d="
M140.091644,80.212425 
	C140.069519,80.249443 139.981171,80.060814 139.981171,80.060814 
	C139.981171,80.060814 140.104645,80.275749 140.152206,80.222237 
	C140.199768,80.168724 140.113770,80.175407 140.091644,80.212425 
z"/>
<path fill="#F1F2F5" opacity="1.000000" stroke="none" 
	d="
M166.820297,118.456635 
	C164.928848,118.920105 163.283096,119.056709 161.309784,119.220497 
	C161.236252,117.777481 161.173843,116.552536 161.076111,114.634575 
	C163.431625,116.042770 167.603928,112.401642 166.820297,118.456635 
z"/>
</svg>